<svg class="viz" viewBox="0 0 1000 680" role="img" aria-label="Hold máximo continuo por corrida. Solo dos corridas, ambas con curriculum y 500 mil pasos, superan el umbral de un segundo. La mejor alcanza 4,43 segundos de los 10 posibles."
     xmlns="http://www.w3.org/2000/svg" preserveAspectRatio="xMidYMid meet">
  <title>Solo dos de trece corridas superan el umbral</title><desc>Hold máximo continuo por corrida. Solo dos corridas, ambas con curriculum y 500 mil pasos, superan el umbral de un segundo. La mejor alcanza 4,43 segundos de los 10 posibles.</desc>
  <text class="viz-title" x="0" y="20">Solo dos de trece corridas superan el umbral</text>
  <text class="viz-sub" x="0" y="42">Ninguna configuración sin curriculum pasa de 0,3 s</text>
  <rect x="0" y="59" width="10" height="10" rx="2" fill="var(--viz-1)"/><text class="viz-legend" x="16" y="68">Con curriculum</text><rect x="119" y="59" width="10" height="10" rx="2" fill="var(--viz-2)"/><text class="viz-legend" x="135" y="68">Sin curriculum</text>
  <g class="viz-grid"><line x1="250.0" y1="104" x2="250.0" y2="628.0"/><line x1="386.0" y1="104" x2="386.0" y2="628.0"/><line x1="522.0" y1="104" x2="522.0" y2="628.0"/><line x1="658.0" y1="104" x2="658.0" y2="628.0"/><line x1="794.0" y1="104" x2="794.0" y2="628.0"/><line x1="930.0" y1="104" x2="930.0" y2="628.0"/></g><text class="viz-tick" x="250.0" y="650.0" text-anchor="middle">0</text><text class="viz-tick" x="386.0" y="650.0" text-anchor="middle">1</text><text class="viz-tick" x="522.0" y="650.0" text-anchor="middle">2</text><text class="viz-tick" x="658.0" y="650.0" text-anchor="middle">3</text><text class="viz-tick" x="794.0" y="650.0" text-anchor="middle">4</text><text class="viz-tick" x="930.0" y="650.0" text-anchor="middle">5</text><text class="viz-axlab" x="590" y="674" text-anchor="middle">Hold máximo continuo (s) · el episodio dura 10 s</text><rect x="250" y="114.2" width="602.2" height="20.0" rx="4" fill="var(--viz-1)" fill-opacity="1"><title>curriculum · s1 · 500k — hold 4.43 s, balance_rate 0.93</title></rect><text class="viz-tick" x="238" y="128.2" text-anchor="end">curriculum · s1 · 500k</text><text class="viz-val" x="860.2" y="128.2">4.43</text><rect x="250" y="154.5" width="467.7" height="20.0" rx="4" fill="var(--viz-1)" fill-opacity="1"><title>curriculum · s2 · 500k — hold 3.44 s, balance_rate 0.60</title></rect><text class="viz-tick" x="238" y="168.5" text-anchor="end">curriculum · s2 · 500k</text><text class="viz-val" x="725.7" y="168.5">3.44</text><rect x="250" y="194.8" width="52.0" height="20.0" rx="4" fill="var(--viz-1)" fill-opacity="0.5"><title>curriculum · s0 · 300k — hold 0.38 s, balance_rate 0.00</title></rect><text class="viz-tick" x="238" y="208.8" text-anchor="end">curriculum · s0 · 300k</text><text class="viz-val" x="310.0" y="208.8">0.38</text><rect x="250" y="235.1" width="45.0" height="20.0" rx="4" fill="var(--viz-1)" fill-opacity="0.5"><title>curriculum · s0 · 500k — hold 0.33 s, balance_rate 0.00</title></rect><text class="viz-tick" x="238" y="249.1" text-anchor="end">curriculum · s0 · 500k</text><text class="viz-val" x="303.0" y="249.1">0.33</text><rect x="250" y="275.4" width="37.5" height="20.0" rx="4" fill="var(--viz-2)" fill-opacity="0.5"><title>control · s1 · 200k — hold 0.28 s, balance_rate 0.00</title></rect><text class="viz-tick" x="238" y="289.4" text-anchor="end">control · s1 · 200k</text><text class="viz-val" x="295.5" y="289.4">0.28</text><rect x="250" y="315.7" width="33.5" height="20.0" rx="4" fill="var(--viz-2)" fill-opacity="0.5"><title>control · s2 · 200k — hold 0.25 s, balance_rate 0.00</title></rect><text class="viz-tick" x="238" y="329.7" text-anchor="end">control · s2 · 200k</text><text class="viz-val" x="291.5" y="329.7">0.25</text><rect x="250" y="356.0" width="23.6" height="20.0" rx="4" fill="var(--viz-2)" fill-opacity="0.5"><title>control · s1 · 300k — hold 0.17 s, balance_rate 0.00</title></rect><text class="viz-tick" x="238" y="370.0" text-anchor="end">control · s1 · 300k</text><text class="viz-val" x="281.6" y="370.0">0.17</text><rect x="250" y="396.3" width="16.5" height="20.0" rx="4" fill="var(--viz-2)" fill-opacity="0.5"><title>control · s1 · 150k — hold 0.12 s, balance_rate 0.00</title></rect><text class="viz-tick" x="238" y="410.3" text-anchor="end">control · s1 · 150k</text><text class="viz-val" x="274.5" y="410.3">0.12</text><rect x="250" y="436.6" width="10.7" height="20.0" rx="4" fill="var(--viz-2)" fill-opacity="0.5"><title>control+pbrs · s1 · 150k — hold 0.08 s, balance_rate 0.00</title></rect><text class="viz-tick" x="238" y="450.6" text-anchor="end">control+pbrs · s1 · 150k</text><text class="viz-val" x="268.7" y="450.6">0.08</text><rect x="250" y="476.9" width="7.8" height="20.0" rx="4" fill="var(--viz-2)" fill-opacity="0.5"><title>control · s0 · 200k — hold 0.06 s, balance_rate 0.00</title></rect><text class="viz-tick" x="238" y="490.9" text-anchor="end">control · s0 · 200k</text><text class="viz-val" x="265.8" y="490.9">0.06</text><rect x="250" y="517.2" width="7.7" height="20.0" rx="4" fill="var(--viz-2)" fill-opacity="0.5"><title>control · s0 · 150k — hold 0.06 s, balance_rate 0.00</title></rect><text class="viz-tick" x="238" y="531.2" text-anchor="end">control · s0 · 150k</text><text class="viz-val" x="265.7" y="531.2">0.06</text><rect x="250" y="557.5" width="1.5" height="20.0" rx="4" fill="var(--viz-2)" fill-opacity="0.5"><title>control+pbrs · s0 · 150k — hold 0.01 s, balance_rate 0.00</title></rect><text class="viz-tick" x="238" y="571.5" text-anchor="end">control+pbrs · s0 · 150k</text><text class="viz-val" x="259.5" y="571.5">0.01</text><rect x="250" y="597.8" width="1.5" height="20.0" rx="4" fill="var(--viz-2)" fill-opacity="0.5"><title>control · s0 · 300k — hold 0.01 s, balance_rate 0.00</title></rect><text class="viz-tick" x="238" y="611.8" text-anchor="end">control · s0 · 300k</text><text class="viz-val" x="259.5" y="611.8">0.01</text><line class="viz-rule" x1="386.0" y1="92" x2="386.0" y2="628.0"/><text class="viz-rule-lab" x="394.0" y="88">umbral de equilibrio: 1 s</text>
</svg>